<?xml version="1.0" encoding="utf-8"?>
<!-- Generator: Adobe Illustrator 27.5.0, SVG Export Plug-In . SVG Version: 6.00 Build 0)  -->
<svg version="1.1" xmlns="http://www.w3.org/2000/svg" xmlns:xlink="http://www.w3.org/1999/xlink" x="0px" y="0px"
	 viewBox="0 0 3710 3710" style="enable-background:new 0 0 3710 3710;" xml:space="preserve">
<g id="Background">
	<g>
		<g>
			<rect style="fill:#FFFFFF;" width="3710" height="3710"/>
		</g>
	</g>
</g>
<g id="Illustration">
	<g>
		<linearGradient id="SVGID_1_" gradientUnits="userSpaceOnUse" x1="3601.4849" y1="4058.2422" x2="1123.3087" y2="980.5029">
			<stop  offset="0" style="stop-color:#B37CFF"/>
			<stop  offset="1" style="stop-color:#F895E7"/>
		</linearGradient>
		<path style="opacity:0.3;fill:url(#SVGID_1_);" d="M2919.723,2844.493c-56.923,59.926-110.782,98.571-153.336,129.104
			c-500.208,358.905-1092.088,254.286-1217.879,228.737c-185.754-37.728-544.812-110.654-804.405-415.93
			c-392.742-461.857-331.586-1189.499-26.949-1669.826c55.723-87.86,350.068-575.503,948.322-653.706
			c362.057-47.327,784.099,48.126,1089.731,304.185C3396.754,1304.547,3351.083,2390.371,2919.723,2844.493z"/>
		<g>
			
				<linearGradient id="SVGID_00000101085582068033139990000011165339394504173446_" gradientUnits="userSpaceOnUse" x1="6217.0913" y1="1247.7865" x2="7430.7715" y2="1247.7865" gradientTransform="matrix(0.9997 0.0247 -0.0247 0.9997 -5130.8647 -84.4523)">
				<stop  offset="0" style="stop-color:#A737D5"/>
				<stop  offset="1" style="stop-color:#EF497A"/>
			</linearGradient>
			<path style="fill:url(#SVGID_00000101085582068033139990000011165339394504173446_);" d="M1073.038,618.199
				c-7.402-10.859,6.336-25.262,19.831-20.883c137.041,44.464,485.61,201.419,593.742,668.655
				c135.667,586.218,347.929,737.444,562.546,796.9c0,0-251.702,30.105-475.241-120.205
				C1225.076,1573.617,1204.655,811.27,1073.038,618.199z"/>
			<path style="fill:#FFFFFF;" d="M1219.389,761.255c36.901,56.866,72.455,114.468,105.471,173.369
				c33.373,58.703,64.639,118.467,93.676,179.208c28.763,60.859,56.189,122.308,80.537,184.974
				c24.672,62.536,46.203,126.223,67.564,190.256c21.76,63.853,43.262,128.326,72.44,190.359
				c29.051,61.932,67.191,121.003,116.978,170.973c12.428,12.446,25.181,24.714,38.691,36.111
				c13.254,11.648,27.147,22.72,41.282,33.543c28.41,21.513,58.653,41.223,90.619,58.674
				c64.057,34.753,134.955,60.162,208.546,76.434c7.746,1.713,16.199-2.697,18.883-9.85c2.635-7.023-1.275-14.079-8.751-15.953
				l-0.053-0.013c-17.723-4.426-35.348-9.033-52.605-14.354c-8.691-2.532-17.2-5.418-25.782-8.153
				c-8.423-3.034-17.014-5.764-25.298-9.039c-33.428-12.571-65.597-27.329-96.147-44.267
				c-61.252-33.552-116.299-76.026-163.964-123.679c-23.511-24.104-44.822-49.902-63.672-77.286
				c-18.828-27.402-35.184-56.358-49.609-86.341c-28.871-59.998-50.761-123.602-73.049-187.265
				c-22.388-63.643-45.392-127.416-71.391-189.976c-12.9-31.316-26.452-62.364-40.644-93.123
				c-6.992-15.424-14.332-30.694-21.637-45.976c-7.477-15.205-15.051-30.362-22.768-45.447c-31-60.284-64.14-119.504-99.43-177.513
				c-35.619-57.828-73.039-114.633-112.989-169.827c-1.143-1.578-3.591-1.896-5.47-0.71
				C1218.988,757.534,1218.377,759.688,1219.389,761.255z"/>
		</g>
		<g>
			<g>
				
					<linearGradient id="SVGID_00000137111465474560191930000016964076973330512821_" gradientUnits="userSpaceOnUse" x1="-1577.6233" y1="3897.8291" x2="-413.7301" y2="3897.8291" gradientTransform="matrix(0.3102 -0.9508 0.9508 0.3102 -1683.1646 -942.1326)">
					<stop  offset="0" style="stop-color:#CE1567"/>
					<stop  offset="1" style="stop-color:#7A1DBC"/>
				</linearGradient>
				<path style="fill:url(#SVGID_00000137111465474560191930000016964076973330512821_);" d="M1856.079,1844.862
					c-7.572,18.516-31.595,23.281-45.846,9.243c-78.637-77.463-281.166-316.583-244.849-695.904
					c30.668-320.319,16.858-496.924,5.033-576.662c-2.5-16.861,17.978-27.114,30.003-15.034
					C1733.096,699.79,2130.472,1173.911,1856.079,1844.862z"/>
				<path style="fill:#FFFFFF;" d="M1829.009,1843.918c-0.424,0.257-0.878,0.476-1.361,0.653c-4.048,1.488-8.537-0.587-10.025-4.635
					c-1.687-4.59-168.448-464.087-145.925-911.396c0.218-4.304,3.885-7.621,8.195-7.409c4.309,0.218,7.624,3.885,7.409,8.195
					c-22.36,444.053,143.307,900.661,144.982,905.22C1833.595,1838.112,1832.141,1842.019,1829.009,1843.918z"/>
			</g>
		</g>
		<g>
			
				<linearGradient id="SVGID_00000178190644051514679870000012327724494743296391_" gradientUnits="userSpaceOnUse" x1="5160.3584" y1="271.2033" x2="998.4658" y2="2624.8245">
				<stop  offset="0" style="stop-color:#53D8FF"/>
				<stop  offset="1" style="stop-color:#3840F7"/>
			</linearGradient>
			<path style="fill:url(#SVGID_00000178190644051514679870000012327724494743296391_);" d="M1885.245,3105.096h1009.787
				c5.667,0,10.261-4.594,10.261-10.26V580.784c0-5.667-4.594-10.261-10.261-10.261H1885.245c-5.667,0-10.261,4.594-10.261,10.261
				v2514.051C1874.984,3100.502,1879.578,3105.096,1885.245,3105.096z"/>
			
				<linearGradient id="SVGID_00000173869449887773043960000010644145310037660802_" gradientUnits="userSpaceOnUse" x1="3313.0623" y1="68.2921" x2="1699.8783" y2="4915.019">
				<stop  offset="0" style="stop-color:#53D8FF"/>
				<stop  offset="1" style="stop-color:#3840F7"/>
			</linearGradient>
			<path style="fill:url(#SVGID_00000173869449887773043960000010644145310037660802_);" d="M2225.202,3105.096h997.788
				c8.98,0,16.26-7.28,16.26-16.26V586.784c0-8.98-7.28-16.26-16.26-16.26h-997.788c-8.98,0-16.26,7.28-16.26,16.26v2502.052
				C2208.942,3097.816,2216.222,3105.096,2225.202,3105.096z"/>
			<g>
				<path style="opacity:0.65;fill:#FFFFFF;" d="M3110.29,946.015h-787.57c-21.988,0-39.877-23.726-39.877-52.889V744.632
					c0-29.162,17.889-52.889,39.877-52.889h787.57c21.988,0,39.877,23.726,39.877,52.889v148.495
					C3150.167,922.288,3132.278,946.015,3110.29,946.015z M2322.72,704.965c-16.492,0-29.908,17.793-29.908,39.667v148.495
					c0,21.873,13.416,39.667,29.908,39.667h787.57c16.492,0,29.908-17.793,29.908-39.667V744.632
					c0-21.873-13.416-39.667-29.908-39.667H2322.72z"/>
				<path style="opacity:0.65;fill:#FFFFFF;" d="M3110.29,1352.852h-787.57c-21.988,0-39.877-23.726-39.877-52.889v-148.494
					c0-29.162,17.889-52.889,39.877-52.889h787.57c21.988,0,39.877,23.726,39.877,52.889v148.494
					C3150.167,1329.125,3132.278,1352.852,3110.29,1352.852z M2322.72,1111.802c-16.492,0-29.908,17.793-29.908,39.667v148.494
					c0,21.873,13.416,39.667,29.908,39.667h787.57c16.492,0,29.908-17.793,29.908-39.667v-148.494
					c0-21.873-13.416-39.667-29.908-39.667H2322.72z"/>
				<path style="opacity:0.65;fill:#FFFFFF;" d="M3110.29,1784.65h-787.57c-21.988,0-39.877-23.726-39.877-52.889v-148.494
					c0-29.162,17.889-52.889,39.877-52.889h787.57c21.988,0,39.877,23.726,39.877,52.889v148.494
					C3150.167,1760.924,3132.278,1784.65,3110.29,1784.65z M2322.72,1543.601c-16.492,0-29.908,17.793-29.908,39.667v148.494
					c0,21.873,13.416,39.667,29.908,39.667h787.57c16.492,0,29.908-17.793,29.908-39.667v-148.494
					c0-21.873-13.416-39.667-29.908-39.667H2322.72z"/>
				<path style="opacity:0.65;fill:#FFFFFF;" d="M3110.29,2191.487h-787.57c-21.988,0-39.877-23.726-39.877-52.889v-148.494
					c0-29.162,17.889-52.889,39.877-52.889h787.57c21.988,0,39.877,23.726,39.877,52.889v148.494
					C3150.167,2167.761,3132.278,2191.487,3110.29,2191.487z M2322.72,1950.438c-16.492,0-29.908,17.793-29.908,39.667v148.494
					c0,21.873,13.416,39.667,29.908,39.667h787.57c16.492,0,29.908-17.793,29.908-39.667v-148.494
					c0-21.873-13.416-39.667-29.908-39.667H2322.72z"/>
				<path style="opacity:0.65;fill:#FFFFFF;" d="M3105.306,2608.776h-787.57c-21.988,0-39.877-23.726-39.877-52.889v-148.494
					c0-29.163,17.889-52.889,39.877-52.889h787.57c21.988,0,39.877,23.726,39.877,52.889v148.494
					C3145.183,2585.049,3127.294,2608.776,3105.306,2608.776z M2317.735,2367.726c-16.492,0-29.908,17.793-29.908,39.667v148.494
					c0,21.874,13.416,39.667,29.908,39.667h787.57c16.492,0,29.908-17.793,29.908-39.667v-148.494
					c0-21.874-13.416-39.667-29.908-39.667H2317.735z"/>
				<path style="opacity:0.65;fill:#FFFFFF;" d="M3110.29,3025.432h-787.57c-21.988,0-39.877-23.726-39.877-52.889v-148.494
					c0-29.162,17.889-52.889,39.877-52.889h787.57c21.988,0,39.877,23.726,39.877,52.889v148.494
					C3150.167,3001.706,3132.278,3025.432,3110.29,3025.432z M2322.72,2784.383c-16.492,0-29.908,17.793-29.908,39.667v148.494
					c0,21.873,13.416,39.667,29.908,39.667h787.57c16.492,0,29.908-17.793,29.908-39.667v-148.494
					c0-21.874-13.416-39.667-29.908-39.667H2322.72z"/>
				<ellipse style="fill:#FFFFFF;" cx="2346.813" cy="813.79" rx="19.108" ry="18.167"/>
				<ellipse style="fill:#FFFFFF;" cx="2346.813" cy="1225.716" rx="19.108" ry="18.167"/>
				<ellipse style="fill:#FFFFFF;" cx="2346.813" cy="1649.93" rx="19.108" ry="18.167"/>
				<ellipse style="fill:#FFFFFF;" cx="2346.813" cy="2064.351" rx="19.108" ry="18.167"/>
				<ellipse style="fill:#FFFFFF;" cx="2346.813" cy="2481.64" rx="19.108" ry="18.167"/>
				<ellipse style="fill:#FFFFFF;" cx="2338.505" cy="2898.297" rx="19.108" ry="18.167"/>
				<g>
					<rect x="2433.838" y="2894.118" style="fill:#FFFFFF;" width="31.396" height="112.765"/>
					<rect x="2486.298" y="2932.874" style="fill:#FFFFFF;" width="31.396" height="74.009"/>
					<rect x="2538.758" y="2837.092" style="fill:#FFFFFF;" width="31.396" height="169.791"/>
					<rect x="2591.218" y="2966.093" style="fill:#FFFFFF;" width="31.396" height="40.79"/>
					<rect x="2643.678" y="2859.792" style="fill:#FFFFFF;" width="31.396" height="147.091"/>
					<rect x="2696.138" y="2885.26" style="fill:#FFFFFF;" width="31.396" height="121.623"/>
					<rect x="2748.598" y="2912.942" style="fill:#FFFFFF;" width="31.396" height="93.94"/>
					<rect x="2801.058" y="2802.766" style="fill:#FFFFFF;" width="31.396" height="204.117"/>
					<rect x="2853.518" y="2824.358" style="fill:#FFFFFF;" width="31.396" height="182.525"/>
					<rect x="2905.978" y="2857.023" style="fill:#FFFFFF;" width="31.396" height="149.859"/>
					<rect x="2958.438" y="2969.878" style="fill:#FFFFFF;" width="31.396" height="37.004"/>
					<rect x="3010.897" y="2897.994" style="fill:#FFFFFF;" width="31.396" height="108.889"/>
				</g>
				<g>
					<rect x="2434.682" y="2470.933" style="fill:#FFFFFF;" width="31.396" height="112.765"/>
					<rect x="2487.142" y="2509.689" style="fill:#FFFFFF;" width="31.396" height="74.009"/>
					<rect x="2539.603" y="2413.907" style="fill:#FFFFFF;" width="31.396" height="169.791"/>
					<rect x="2592.063" y="2542.908" style="fill:#FFFFFF;" width="31.396" height="40.79"/>
					<rect x="2644.522" y="2436.607" style="fill:#FFFFFF;" width="31.396" height="147.091"/>
					<rect x="2696.983" y="2462.075" style="fill:#FFFFFF;" width="31.396" height="121.623"/>
					<rect x="2749.442" y="2489.758" style="fill:#FFFFFF;" width="31.396" height="93.94"/>
					<rect x="2801.902" y="2379.581" style="fill:#FFFFFF;" width="31.396" height="204.117"/>
					<rect x="2854.362" y="2401.174" style="fill:#FFFFFF;" width="31.396" height="182.525"/>
					<rect x="2906.822" y="2433.839" style="fill:#FFFFFF;" width="31.396" height="149.859"/>
					<rect x="2959.282" y="2546.694" style="fill:#FFFFFF;" width="31.396" height="37.004"/>
					<rect x="3011.742" y="2474.809" style="fill:#FFFFFF;" width="31.396" height="108.889"/>
				</g>
				<g>
					<rect x="2423.728" y="2055.333" style="fill:#FFFFFF;" width="31.396" height="112.765"/>
					<rect x="2476.188" y="2094.089" style="fill:#FFFFFF;" width="31.396" height="74.009"/>
					<rect x="2528.648" y="1998.307" style="fill:#FFFFFF;" width="31.396" height="169.791"/>
					<rect x="2581.108" y="2127.308" style="fill:#FFFFFF;" width="31.396" height="40.79"/>
					<rect x="2633.568" y="2021.007" style="fill:#FFFFFF;" width="31.396" height="147.091"/>
					<rect x="2686.028" y="2046.475" style="fill:#FFFFFF;" width="31.396" height="121.623"/>
					<rect x="2738.488" y="2074.157" style="fill:#FFFFFF;" width="31.396" height="93.94"/>
					<rect x="2790.948" y="1963.981" style="fill:#FFFFFF;" width="31.396" height="204.117"/>
					<rect x="2843.408" y="1985.573" style="fill:#FFFFFF;" width="31.396" height="182.525"/>
					<rect x="2895.868" y="2018.239" style="fill:#FFFFFF;" width="31.396" height="149.859"/>
					<rect x="2948.328" y="2131.094" style="fill:#FFFFFF;" width="31.396" height="37.004"/>
					<rect x="3000.788" y="2059.209" style="fill:#FFFFFF;" width="31.396" height="108.889"/>
				</g>
				<g>
					<rect x="2424.573" y="1647.317" style="fill:#FFFFFF;" width="31.396" height="112.765"/>
					<rect x="2477.033" y="1686.073" style="fill:#FFFFFF;" width="31.396" height="74.009"/>
					<rect x="2529.493" y="1590.292" style="fill:#FFFFFF;" width="31.396" height="169.791"/>
					<rect x="2581.953" y="1719.292" style="fill:#FFFFFF;" width="31.396" height="40.79"/>
					<rect x="2634.413" y="1612.991" style="fill:#FFFFFF;" width="31.396" height="147.091"/>
					<rect x="2686.873" y="1638.459" style="fill:#FFFFFF;" width="31.396" height="121.623"/>
					<rect x="2739.333" y="1666.142" style="fill:#FFFFFF;" width="31.396" height="93.941"/>
					<rect x="2791.793" y="1555.965" style="fill:#FFFFFF;" width="31.396" height="204.117"/>
					<rect x="2844.253" y="1577.558" style="fill:#FFFFFF;" width="31.396" height="182.525"/>
					<rect x="2896.713" y="1610.223" style="fill:#FFFFFF;" width="31.396" height="149.859"/>
					<rect x="2949.172" y="1723.078" style="fill:#FFFFFF;" width="31.396" height="37.005"/>
					<rect x="3001.633" y="1651.193" style="fill:#FFFFFF;" width="31.396" height="108.889"/>
				</g>
				<g>
					<rect x="2423.728" y="1217.562" style="fill:#FFFFFF;" width="31.396" height="112.765"/>
					<rect x="2476.188" y="1256.318" style="fill:#FFFFFF;" width="31.396" height="74.009"/>
					<rect x="2528.648" y="1160.536" style="fill:#FFFFFF;" width="31.396" height="169.791"/>
					<rect x="2581.108" y="1289.537" style="fill:#FFFFFF;" width="31.396" height="40.79"/>
					<rect x="2633.568" y="1183.236" style="fill:#FFFFFF;" width="31.396" height="147.091"/>
					<rect x="2686.028" y="1208.704" style="fill:#FFFFFF;" width="31.396" height="121.623"/>
					<rect x="2738.488" y="1236.386" style="fill:#FFFFFF;" width="31.396" height="93.941"/>
					<rect x="2790.948" y="1126.21" style="fill:#FFFFFF;" width="31.396" height="204.117"/>
					<rect x="2843.408" y="1147.802" style="fill:#FFFFFF;" width="31.396" height="182.525"/>
					<rect x="2895.868" y="1180.468" style="fill:#FFFFFF;" width="31.396" height="149.859"/>
					<rect x="2948.328" y="1293.323" style="fill:#FFFFFF;" width="31.396" height="37.005"/>
					<rect x="3000.788" y="1221.438" style="fill:#FFFFFF;" width="31.396" height="108.889"/>
				</g>
				<g>
					<rect x="2424.573" y="809.546" style="fill:#FFFFFF;" width="31.396" height="112.765"/>
					<rect x="2477.033" y="848.302" style="fill:#FFFFFF;" width="31.396" height="74.009"/>
					<rect x="2529.493" y="752.52" style="fill:#FFFFFF;" width="31.396" height="169.791"/>
					<rect x="2581.953" y="881.521" style="fill:#FFFFFF;" width="31.396" height="40.79"/>
					<rect x="2634.413" y="775.22" style="fill:#FFFFFF;" width="31.396" height="147.091"/>
					<rect x="2686.873" y="800.688" style="fill:#FFFFFF;" width="31.396" height="121.623"/>
					<rect x="2739.333" y="828.371" style="fill:#FFFFFF;" width="31.396" height="93.94"/>
					<rect x="2791.793" y="718.194" style="fill:#FFFFFF;" width="31.396" height="204.117"/>
					<rect x="2844.253" y="739.787" style="fill:#FFFFFF;" width="31.396" height="182.525"/>
					<rect x="2896.713" y="772.452" style="fill:#FFFFFF;" width="31.396" height="149.859"/>
					<rect x="2949.172" y="885.307" style="fill:#FFFFFF;" width="31.396" height="37.004"/>
					<rect x="3001.633" y="813.422" style="fill:#FFFFFF;" width="31.396" height="108.889"/>
				</g>
			</g>
		</g>
		<g>
			<g>
				
					<linearGradient id="SVGID_00000181065368297041653360000009804435025334335911_" gradientUnits="userSpaceOnUse" x1="1705.8547" y1="3284.719" x2="1682.1687" y2="2815.7419">
					<stop  offset="0" style="stop-color:#2B3582"/>
					<stop  offset="1" style="stop-color:#150E42"/>
				</linearGradient>
				<polygon style="fill:url(#SVGID_00000181065368297041653360000009804435025334335911_);" points="1455.248,2754.966 
					1404.971,3101.926 1988.274,3101.926 1912.298,2754.966 				"/>
				
					<linearGradient id="SVGID_00000020368225563348978980000010419597724787414693_" gradientUnits="userSpaceOnUse" x1="475.4034" y1="2195.4988" x2="2803.7776" y2="2195.4988">
					<stop  offset="0" style="stop-color:#2B3582"/>
					<stop  offset="1" style="stop-color:#150E42"/>
				</linearGradient>
				<path style="fill:url(#SVGID_00000020368225563348978980000010419597724787414693_);" d="M475.403,1644.026v1032.696
					c0,84.953,67.697,154.424,152.622,156.614c377.191,9.726,1696.422,33.311,2055.483,28.017
					c61.713-0.91,111.706-50.295,113.487-111.989c6.924-239.909,18.168-816.811-23.445-1084.644
					c-8.763-56.403-56.372-98.58-113.423-100.404c-316.038-10.11-1714.51-42.214-2073.403-34.154
					C524.828,1531.553,475.403,1582.114,475.403,1644.026z"/>
				
					<linearGradient id="SVGID_00000083073921208043466710000016068687953505603472_" gradientUnits="userSpaceOnUse" x1="2340.2573" y1="1513.8606" x2="-101.2825" y2="3693.8066">
					<stop  offset="0" style="stop-color:#FDF53F"/>
					<stop  offset="1" style="stop-color:#D93C65"/>
				</linearGradient>
				<path style="fill:url(#SVGID_00000083073921208043466710000016068687953505603472_);" d="M540.202,1639v981.132
					c0,49.601,39.815,90.016,89.41,90.757l2002.24,24.737c49.169,0.735,89.474-38.823,89.657-87.998l3.35-972.366
					c0.131-35.161-27.881-63.971-63.032-64.826l-2049.922-41.414C572.589,1568.065,540.202,1599.674,540.202,1639z"/>
				<path style="opacity:0.65;fill:#FFFFFF;" d="M2736.583,2776.131c-0.018,0-0.036,0-0.054,0l-2196.38-37.425
					c-1.695-0.03-3.046-1.427-3.018-3.121c0.03-1.697,1.499-3.082,3.123-3.019l2196.38,37.425c1.696,0.03,3.046,1.427,3.018,3.121
					C2739.624,2774.791,2738.255,2776.131,2736.583,2776.131z"/>
				<path style="opacity:0.65;fill:#FFFFFF;" d="M1660.059,2821.837c-14.294,0-25.923-11.63-25.923-25.923
					c0-14.293,11.629-25.923,25.923-25.923s25.923,11.63,25.923,25.923C1685.982,2810.206,1674.354,2821.837,1660.059,2821.837z
					 M1660.059,2776.131c-10.908,0-19.783,8.875-19.783,19.783s8.875,19.783,19.783,19.783c10.908,0,19.783-8.875,19.783-19.783
					S1670.967,2776.131,1660.059,2776.131z"/>
				
					<linearGradient id="SVGID_00000181077011062235164110000006601044536078677126_" gradientUnits="userSpaceOnUse" x1="1710.0992" y1="3105.291" x2="1431.606" y2="3716.7649">
					<stop  offset="0" style="stop-color:#2B3582"/>
					<stop  offset="1" style="stop-color:#150E42"/>
				</linearGradient>
				<path style="fill:url(#SVGID_00000181077011062235164110000006601044536078677126_);" d="M2113.917,3194.181h-853.703
					c-23.193,0-40.609-16.51-36.125-34.245l10.954-43.323c3.294-13.029,17.628-22.594,34.652-23.125l823.001-25.681
					c17.786-0.555,33.534,8.886,37.409,22.427l19.748,69.004C2154.984,3177.165,2137.484,3194.181,2113.917,3194.181z"/>
				<path style="fill:#FFFFFF;" d="M1719.777,3105.513c-1.675,0-3.043-1.346-3.069-3.025c-0.024-1.697,1.33-3.091,3.025-3.115
					l35.267-0.516c1.651-0.021,3.09,1.331,3.115,3.025c0.024,1.697-1.33,3.091-3.025,3.115l-35.267,0.516
					C1719.809,3105.513,1719.794,3105.513,1719.777,3105.513z"/>
				<path style="fill:#FFFFFF;" d="M1255.697,3170.585c-0.162,0-0.324-0.012-0.489-0.039c-1.675-0.267-2.815-1.841-2.547-3.514
					l5.031-31.512c2.725-17.072,17.249-29.644,34.534-29.899l374.055-5.469c1.667-0.084,3.091,1.331,3.115,3.025
					c0.024,1.697-1.33,3.091-3.025,3.115l-374.055,5.469c-14.296,0.21-26.307,10.608-28.562,24.724l-5.031,31.512
					C1258.484,3169.509,1257.178,3170.585,1255.697,3170.585z"/>
			</g>
			<g>
				<g style="opacity:0.53;">
					<rect x="1809.683" y="2259.76" style="fill:#FFFFFF;" width="77.466" height="400.447"/>
					<rect x="1939.121" y="2259.76" style="fill:#FFFFFF;" width="77.466" height="400.447"/>
					<rect x="2068.56" y="2259.76" style="fill:#FFFFFF;" width="77.466" height="400.447"/>
					<rect x="2197.998" y="2259.76" style="fill:#FFFFFF;" width="77.466" height="400.447"/>
					<rect x="2327.437" y="2259.76" style="fill:#FFFFFF;" width="77.466" height="400.447"/>
					<rect x="2456.875" y="2259.76" style="fill:#FFFFFF;" width="77.466" height="400.447"/>
					<rect x="2586.314" y="2259.76" style="fill:#FFFFFF;" width="77.466" height="400.447"/>
				</g>
				
					<linearGradient id="SVGID_00000009576949558923082470000000067815217058926979_" gradientUnits="userSpaceOnUse" x1="1848.3434" y1="2547.9651" x2="1850.928" y2="2814.1523">
					<stop  offset="0" style="stop-color:#53D8FF"/>
					<stop  offset="1" style="stop-color:#3840F7"/>
				</linearGradient>
				
					<rect x="1809.683" y="2450.638" style="fill:url(#SVGID_00000009576949558923082470000000067815217058926979_);" width="77.466" height="209.569"/>
				
					<linearGradient id="SVGID_00000094606327707586896780000001307976850546740134_" gradientUnits="userSpaceOnUse" x1="1977.4242" y1="2547.1506" x2="1980.0109" y2="2813.5483">
					<stop  offset="0" style="stop-color:#53D8FF"/>
					<stop  offset="1" style="stop-color:#3840F7"/>
				</linearGradient>
				
					<rect x="1939.121" y="2522.664" style="fill:url(#SVGID_00000094606327707586896780000001307976850546740134_);" width="77.466" height="137.544"/>
				
					<linearGradient id="SVGID_00000160909211373731532850000018152921199992588972_" gradientUnits="userSpaceOnUse" x1="2107.7214" y1="2546.5603" x2="2110.3047" y2="2812.6143">
					<stop  offset="0" style="stop-color:#53D8FF"/>
					<stop  offset="1" style="stop-color:#3840F7"/>
				</linearGradient>
				
					<rect x="2068.56" y="2344.657" style="fill:url(#SVGID_00000160909211373731532850000018152921199992588972_);" width="77.466" height="315.55"/>
				
					<linearGradient id="SVGID_00000105401754189888675670000016731946124606341302_" gradientUnits="userSpaceOnUse" x1="2235.9856" y1="2545.4824" x2="2238.5769" y2="2812.373">
					<stop  offset="0" style="stop-color:#53D8FF"/>
					<stop  offset="1" style="stop-color:#3840F7"/>
				</linearGradient>
				
					<rect x="2197.998" y="2584.4" style="fill:url(#SVGID_00000105401754189888675670000016731946124606341302_);" width="77.466" height="75.807"/>
				
					<linearGradient id="SVGID_00000098916884439481824160000007061862075103413424_" gradientUnits="userSpaceOnUse" x1="2366.3792" y1="2545.0879" x2="2368.9629" y2="2811.1829">
					<stop  offset="0" style="stop-color:#53D8FF"/>
					<stop  offset="1" style="stop-color:#3840F7"/>
				</linearGradient>
				
					<rect x="2327.437" y="2386.844" style="fill:url(#SVGID_00000098916884439481824160000007061862075103413424_);" width="77.466" height="273.363"/>
				
					<linearGradient id="SVGID_00000168114922504958625640000011167305122423373723_" gradientUnits="userSpaceOnUse" x1="2495.5806" y1="2544.3337" x2="2498.1648" y2="2810.4924">
					<stop  offset="0" style="stop-color:#53D8FF"/>
					<stop  offset="1" style="stop-color:#3840F7"/>
				</linearGradient>
				
					<rect x="2456.875" y="2434.175" style="fill:url(#SVGID_00000168114922504958625640000011167305122423373723_);" width="77.466" height="226.032"/>
				
					<linearGradient id="SVGID_00000153670188333743500090000002818774885435164591_" gradientUnits="userSpaceOnUse" x1="2624.762" y1="2543.5593" x2="2627.3472" y2="2809.8286">
					<stop  offset="0" style="stop-color:#53D8FF"/>
					<stop  offset="1" style="stop-color:#3840F7"/>
				</linearGradient>
				
					<rect x="2586.314" y="2485.622" style="fill:url(#SVGID_00000153670188333743500090000002818774885435164591_);" width="77.466" height="174.586"/>
			</g>
			<g>
				<g>
					<g>
						<defs>
							<path id="SVGID_00000010284813772598075510000016710867743655317895_" d="M791.543,2340.823
								c-88.419,0-160.096,71.677-160.096,160.096c0,88.419,71.677,160.096,160.096,160.096
								c88.419,0,160.096-71.677,160.096-160.096C951.639,2412.5,879.962,2340.823,791.543,2340.823z M791.543,2592.129
								c-50.374,0-91.21-40.836-91.21-91.21c0-50.373,40.836-91.21,91.21-91.21c50.373,0,91.21,40.836,91.21,91.21
								C882.753,2551.293,841.916,2592.129,791.543,2592.129z"/>
						</defs>
						
							<use xlink:href="#SVGID_00000010284813772598075510000016710867743655317895_"  style="overflow:visible;opacity:0.57;fill:#FFFFFF;"/>
						<clipPath id="SVGID_00000082333784877277671620000013271014198434386063_">
							<use xlink:href="#SVGID_00000010284813772598075510000016710867743655317895_"  style="overflow:visible;opacity:0.57;"/>
						</clipPath>
						
							<linearGradient id="SVGID_00000096766677085492345010000006768789242364526267_" gradientUnits="userSpaceOnUse" x1="813.4284" y1="2337.9944" x2="790.8621" y2="3009.3379">
							<stop  offset="0" style="stop-color:#53D8FF"/>
							<stop  offset="1" style="stop-color:#3840F7"/>
						</linearGradient>
						
							<rect x="567.972" y="2465.71" style="clip-path:url(#SVGID_00000082333784877277671620000013271014198434386063_);fill:url(#SVGID_00000096766677085492345010000006768789242364526267_);" width="475.561" height="201.255"/>
					</g>
				</g>
				<g>
					<g>
						<defs>
							<path id="SVGID_00000072994220660650226610000017262048903174425777_" d="M1181.809,2340.823
								c-88.419,0-160.096,71.677-160.096,160.096c0,88.419,71.677,160.096,160.096,160.096
								c88.419,0,160.096-71.677,160.096-160.096C1341.905,2412.5,1270.228,2340.823,1181.809,2340.823z M1181.809,2592.129
								c-50.373,0-91.21-40.836-91.21-91.21c0-50.373,40.836-91.21,91.21-91.21c50.374,0,91.21,40.836,91.21,91.21
								C1273.019,2551.293,1232.183,2592.129,1181.809,2592.129z"/>
						</defs>
						
							<use xlink:href="#SVGID_00000072994220660650226610000017262048903174425777_"  style="overflow:visible;opacity:0.57;fill:#FFFFFF;"/>
						<clipPath id="SVGID_00000166666496405162096880000004877699771324940959_">
							<use xlink:href="#SVGID_00000072994220660650226610000017262048903174425777_"  style="overflow:visible;opacity:0.57;"/>
						</clipPath>
						
							<linearGradient id="SVGID_00000054237550189941507750000002993579842144364928_" gradientUnits="userSpaceOnUse" x1="1201.948" y1="2351.0535" x2="1179.3816" y2="3022.3984">
							<stop  offset="0" style="stop-color:#53D8FF"/>
							<stop  offset="1" style="stop-color:#3840F7"/>
						</linearGradient>
						
							<rect x="958.238" y="2387.92" style="clip-path:url(#SVGID_00000166666496405162096880000004877699771324940959_);fill:url(#SVGID_00000054237550189941507750000002993579842144364928_);" width="475.562" height="279.045"/>
					</g>
				</g>
				<g>
					<g>
						<defs>
							<path id="SVGID_00000126321561794119675470000004278559488362842241_" d="M1572.076,2340.823
								c-88.419,0-160.096,71.677-160.096,160.096c0,88.419,71.677,160.096,160.096,160.096
								c88.419,0,160.095-71.677,160.095-160.096C1732.171,2412.5,1660.494,2340.823,1572.076,2340.823z M1572.076,2592.129
								c-50.374,0-91.211-40.836-91.211-91.21c0-50.373,40.837-91.21,91.211-91.21c50.374,0,91.21,40.836,91.21,91.21
								C1663.286,2551.293,1622.449,2592.129,1572.076,2592.129z"/>
						</defs>
						
							<use xlink:href="#SVGID_00000126321561794119675470000004278559488362842241_"  style="overflow:visible;opacity:0.57;fill:#FFFFFF;"/>
						<clipPath id="SVGID_00000168095040938343742920000011920121584043534515_">
							<use xlink:href="#SVGID_00000126321561794119675470000004278559488362842241_"  style="overflow:visible;opacity:0.57;"/>
						</clipPath>
						
							<linearGradient id="SVGID_00000170961271485745296920000002701609867278983317_" gradientUnits="userSpaceOnUse" x1="1594.7692" y1="2364.2585" x2="1572.2028" y2="3035.6018">
							<stop  offset="0" style="stop-color:#53D8FF"/>
							<stop  offset="1" style="stop-color:#3840F7"/>
						</linearGradient>
						
							<rect x="1348.505" y="2566.338" style="clip-path:url(#SVGID_00000168095040938343742920000011920121584043534515_);fill:url(#SVGID_00000170961271485745296920000002701609867278983317_);" width="475.561" height="100.627"/>
					</g>
				</g>
			</g>
			<g style="opacity:0.48;">
				<path style="fill:#FFFFFF;" d="M1855.713,1706.924h-282.652c-11.824,0-21.41,8.791-21.41,19.636
					c0,10.845,9.585,19.636,21.41,19.636h282.652c11.824,0,21.41-8.791,21.41-19.636
					C1877.123,1715.715,1867.537,1706.924,1855.713,1706.924z"/>
				<path style="fill:#FFFFFF;" d="M1855.713,1793.869h-282.652c-11.824,0-21.41,8.791-21.41,19.636s9.585,19.636,21.41,19.636
					h282.652c11.824,0,21.41-8.791,21.41-19.636S1867.537,1793.869,1855.713,1793.869z"/>
				<path style="fill:#FFFFFF;" d="M1855.713,2141.65h-282.652c-11.824,0-21.41,8.791-21.41,19.635
					c0,10.845,9.585,19.636,21.41,19.636h282.652c11.824,0,21.41-8.791,21.41-19.636
					C1877.123,2150.441,1867.537,2141.65,1855.713,2141.65z"/>
				<path style="fill:#FFFFFF;" d="M1855.713,2054.705h-282.652c-11.824,0-21.41,8.792-21.41,19.636
					c0,10.845,9.585,19.636,21.41,19.636h282.652c11.824,0,21.41-8.791,21.41-19.636
					C1877.123,2063.496,1867.537,2054.705,1855.713,2054.705z"/>
				<path style="fill:#FFFFFF;" d="M1855.713,1967.76h-282.652c-11.824,0-21.41,8.791-21.41,19.636
					c0,10.845,9.585,19.636,21.41,19.636h282.652c11.824,0,21.41-8.791,21.41-19.636
					C1877.123,1976.551,1867.537,1967.76,1855.713,1967.76z"/>
			</g>
			<g style="opacity:0.48;">
				<path style="fill:#FFFFFF;" d="M2248.619,1706.924h-282.652c-11.824,0-21.41,8.791-21.41,19.636
					c0,10.845,9.585,19.636,21.41,19.636h282.652c11.824,0,21.409-8.791,21.409-19.636
					C2270.029,1715.715,2260.443,1706.924,2248.619,1706.924z"/>
				<path style="fill:#FFFFFF;" d="M2248.619,1793.869h-282.652c-11.824,0-21.41,8.791-21.41,19.636s9.585,19.636,21.41,19.636
					h282.652c11.824,0,21.409-8.791,21.409-19.636S2260.443,1793.869,2248.619,1793.869z"/>
				<path style="fill:#FFFFFF;" d="M2248.619,2141.65h-282.652c-11.824,0-21.41,8.791-21.41,19.635
					c0,10.845,9.585,19.636,21.41,19.636h282.652c11.824,0,21.409-8.791,21.409-19.636
					C2270.029,2150.441,2260.443,2141.65,2248.619,2141.65z"/>
				<path style="fill:#FFFFFF;" d="M2248.619,2054.705h-282.652c-11.824,0-21.41,8.792-21.41,19.636
					c0,10.845,9.585,19.636,21.41,19.636h282.652c11.824,0,21.409-8.791,21.409-19.636
					C2270.029,2063.496,2260.443,2054.705,2248.619,2054.705z"/>
				<path style="fill:#FFFFFF;" d="M2248.619,1967.76h-282.652c-11.824,0-21.41,8.791-21.41,19.636
					c0,10.845,9.585,19.636,21.41,19.636h282.652c11.824,0,21.409-8.791,21.409-19.636
					C2270.029,1976.551,2260.443,1967.76,2248.619,1967.76z"/>
			</g>
			<g style="opacity:0.48;">
				<path style="fill:#FFFFFF;" d="M2641.525,1706.924h-282.652c-11.824,0-21.409,8.791-21.409,19.636
					c0,10.845,9.585,19.636,21.409,19.636h282.652c11.824,0,21.409-8.791,21.409-19.636
					C2662.935,1715.715,2653.349,1706.924,2641.525,1706.924z"/>
				<path style="fill:#FFFFFF;" d="M2641.525,1793.869h-282.652c-11.824,0-21.409,8.791-21.409,19.636s9.585,19.636,21.409,19.636
					h282.652c11.824,0,21.409-8.791,21.409-19.636S2653.349,1793.869,2641.525,1793.869z"/>
				<path style="fill:#FFFFFF;" d="M2641.525,2141.65h-282.652c-11.824,0-21.409,8.791-21.409,19.635
					c0,10.845,9.585,19.636,21.409,19.636h282.652c11.824,0,21.409-8.791,21.409-19.636
					C2662.935,2150.441,2653.349,2141.65,2641.525,2141.65z"/>
				<path style="fill:#FFFFFF;" d="M2641.525,2054.705h-282.652c-11.824,0-21.409,8.792-21.409,19.636
					c0,10.845,9.585,19.636,21.409,19.636h282.652c11.824,0,21.409-8.791,21.409-19.636
					C2662.935,2063.496,2653.349,2054.705,2641.525,2054.705z"/>
				<path style="fill:#FFFFFF;" d="M2641.525,1967.76h-282.652c-11.824,0-21.409,8.791-21.409,19.636
					c0,10.845,9.585,19.636,21.409,19.636h282.652c11.824,0,21.409-8.791,21.409-19.636
					C2662.935,1976.551,2653.349,1967.76,2641.525,1967.76z"/>
			</g>
			<g>
				
					<linearGradient id="SVGID_00000137851472490155278480000018123326645118703035_" gradientUnits="userSpaceOnUse" x1="1402.3568" y1="776.9344" x2="391.4433" y2="3409.7537">
					<stop  offset="0" style="stop-color:#53D8FF"/>
					<stop  offset="1" style="stop-color:#3840F7"/>
				</linearGradient>
				<path style="fill:url(#SVGID_00000137851472490155278480000018123326645118703035_);" d="M729.315,2206.336h668.578
					c21.32,0,38.603-17.283,38.603-38.603V1166.359c0-21.279-17.22-38.546-38.499-38.602l-673.925-1.809
					c-21.44-0.057-38.82,17.368-38.705,38.808l5.347,1003.183C690.827,2189.178,708.076,2206.336,729.315,2206.336z"/>
				<path style="opacity:0.6;fill:#FFFFFF;" d="M762.078,1175.358l597.817,3.681c21.609,0.133,39.028,17.741,38.928,39.35
					l-4.172,898.769c-0.099,21.283-17.174,38.593-38.454,38.981l-580.853,10.598c-21.694,0.396-39.576-16.919-39.88-38.614
					l-12.792-913.047C722.364,1193.136,740.136,1175.223,762.078,1175.358z"/>
				<path style="opacity:0.6;fill:#FFFFFF;" d="M786.385,1225.711v4.122c0,6.471,5.246,11.718,11.718,11.718h460.615
					c6.471,0,11.718-5.246,11.718-11.718v-4.122c0-6.471-5.246-11.718-11.718-11.718H798.102
					C791.631,1213.993,786.385,1219.24,786.385,1225.711z"/>
				<path style="opacity:0.6;fill:#FFFFFF;" d="M837.778,1277.551L837.778,1277.551c0.332,6.134,5.345,10.97,11.488,11.082
					l402.83,7.341c6.554,0.12,11.932-5.161,11.932-11.716v-0.957c0-6.399-5.134-11.615-11.532-11.716l-402.83-6.385
					C842.871,1265.093,837.41,1270.767,837.778,1277.551z"/>
				<path style="opacity:0.61;fill:#FFFFFF;" d="M796.662,2136.593c-18.428,0-33.613-14.873-33.94-33.344l-13.071-735.084
					c-0.333-18.68,14.597-34.178,33.281-34.542l543.9-10.589c9.112-0.113,17.664,3.189,24.2,9.481
					c6.536,6.291,10.23,14.748,10.402,23.816l14.019,739.13c0.173,9.113-3.225,17.734-9.569,24.276
					c-6.342,6.542-14.852,10.203-23.964,10.313l-544.849,6.539C796.935,2136.59,796.796,2136.593,796.662,2136.593z
					 M1327.502,1335.258c-0.145,0-0.288,0.003-0.433,0.006l-543.899,10.588c-11.953,0.23-21.504,10.143-21.292,22.096l0,0
					l13.071,735.084c0.211,11.813,9.925,21.329,21.714,21.329c0.087,0,0.173,0,0.26-0.003l544.849-6.539
					c5.829-0.069,11.272-2.413,15.33-6.596c4.058-4.187,6.232-9.701,6.121-15.53l-14.019-739.13
					c-0.11-5.802-2.474-11.212-6.654-15.235C1338.473,1337.405,1333.143,1335.258,1327.502,1335.258z"/>
				<path style="opacity:0.61;fill:#FFFFFF;" d="M1356.203,1409.218H762.821c-3.377,0-6.115-2.738-6.115-6.115
					c0-3.377,2.738-6.115,6.115-6.115h593.382c3.377,0,6.115,2.738,6.115,6.115
					C1362.319,1406.48,1359.581,1409.218,1356.203,1409.218z"/>
				<g>
					<path style="opacity:0.73;fill:#FFFFFF;" d="M1076.19,1994.315c-128.572,0-233.172-104.601-233.172-233.174
						c0-128.572,104.601-233.172,233.172-233.172c128.573,0,233.173,104.601,233.173,233.172
						C1309.363,1889.714,1204.763,1994.315,1076.19,1994.315z M1076.19,1601.093c-88.25,0-160.048,71.797-160.048,160.048
						c0,88.252,71.798,160.05,160.048,160.05c88.252,0,160.049-71.798,160.049-160.05
						C1236.239,1672.889,1164.442,1601.093,1076.19,1601.093z"/>
					
						<linearGradient id="SVGID_00000182510439647789721660000000891273515426487714_" gradientUnits="userSpaceOnUse" x1="1301.3021" y1="1701.5059" x2="1261.4608" y2="1805.7062">
						<stop  offset="0" style="stop-color:#FDF53F"/>
						<stop  offset="1" style="stop-color:#D93C65"/>
					</linearGradient>
					<path style="fill:url(#SVGID_00000182510439647789721660000000891273515426487714_);" d="M1308.712,1743.696l-72.92,5.471
						c0.294,3.954,0.447,7.945,0.447,11.973c0,19.07-3.359,37.369-9.505,54.344l68.782,24.828
						c8.955-24.73,13.848-51.39,13.848-79.172C1309.363,1755.273,1309.14,1749.457,1308.712,1743.696z"/>
					
						<linearGradient id="SVGID_00000072281224458320864830000002666724695839849635_" gradientUnits="userSpaceOnUse" x1="1234.031" y1="1590.251" x2="762.7559" y2="2100.4734">
						<stop  offset="0" style="stop-color:#FDF53F"/>
						<stop  offset="1" style="stop-color:#D93C65"/>
					</linearGradient>
					<path style="fill:url(#SVGID_00000072281224458320864830000002666724695839849635_);" d="M1076.19,1921.19
						c-88.25,0-160.048-71.798-160.048-160.05c0-88.251,71.798-160.048,160.048-160.048c13.446,0,26.505,1.676,38.991,4.812
						l17.814-70.926c-18.19-4.57-37.217-7.011-56.805-7.011c-128.572,0-233.172,104.601-233.172,233.172
						c0,128.573,104.601,233.174,233.172,233.174c100.79,0,186.84-64.284,219.326-154.002l-68.782-24.828
						C1204.435,1877.065,1145.371,1921.19,1076.19,1921.19z"/>
					
						<linearGradient id="SVGID_00000054229966475032136810000004457283447532204720_" gradientUnits="userSpaceOnUse" x1="1381.4933" y1="1528.9851" x2="1170.0283" y2="1869.1676">
						<stop  offset="0" style="stop-color:#FDF53F"/>
						<stop  offset="1" style="stop-color:#D93C65"/>
					</linearGradient>
					<path style="fill:url(#SVGID_00000054229966475032136810000004457283447532204720_);" d="M1235.792,1749.167l72.92-5.471
						c-2.242-30.167-10.253-58.75-22.925-84.657l-65.731,32.021C1228.754,1708.842,1234.253,1728.461,1235.792,1749.167z"/>
				</g>
			</g>
		</g>
		<g>
			
				<linearGradient id="SVGID_00000179627429151641611010000016652252142149624751_" gradientUnits="userSpaceOnUse" x1="9853.6836" y1="3072.386" x2="9356.7334" y2="3612.9294" gradientTransform="matrix(-1 0.0095 0.0095 1 12543.6113 -63.4747)">
				<stop  offset="0" style="stop-color:#2B3582"/>
				<stop  offset="1" style="stop-color:#150E42"/>
			</linearGradient>
			<path style="fill:url(#SVGID_00000179627429151641611010000016652252142149624751_);" d="M2876.585,3141.29
				c0,0,5.425,29.088,8.223,57.906c1.094,11.262-7.503,21.132-18.804,21.712c-38.393,1.966-120.523,5.861-150.017,4.826
				c-4.434-0.156-7.375-4.665-5.774-8.802c1.342-3.467,3.966-6.286,7.329-7.87l135.115-63.667L2876.585,3141.29z"/>
			
				<linearGradient id="SVGID_00000015339426529382295510000010918719917850274999_" gradientUnits="userSpaceOnUse" x1="9692.3818" y1="3112.5278" x2="9736.5234" y2="3112.5278" gradientTransform="matrix(-1 0.0095 0.0095 1 12543.6113 -63.4747)">
				<stop  offset="0" style="stop-color:#F9B776"/>
				<stop  offset="1" style="stop-color:#F47960"/>
			</linearGradient>
			<path style="fill:url(#SVGID_00000015339426529382295510000010918719917850274999_);" d="M2880.637,3124.13l-3.802,34.89
				c0,0-23.668,11.294-40.021-1.013l9.474-38.932L2880.637,3124.13z"/>
			
				<linearGradient id="SVGID_00000005249197790373165550000015354269893020558729_" gradientUnits="userSpaceOnUse" x1="9892.8408" y1="2461.0481" x2="9469.9551" y2="3034.2158" gradientTransform="matrix(-1 0.0095 0.0095 1 12543.6113 -63.4747)">
				<stop  offset="0" style="stop-color:#2B3582"/>
				<stop  offset="1" style="stop-color:#150E42"/>
			</linearGradient>
			<path style="fill:url(#SVGID_00000005249197790373165550000015354269893020558729_);" d="M2871.279,2468.945
				c1.873,9.084,13.92,454.079-31.751,653.985c-0.745,3.262,0.937,6.601,4.045,7.837c7.326,2.911,21.672,7.092,38.821,7.504
				c5.31,0.128,10.038-3.368,11.487-8.479c13.157-46.406,76.11-278.881,82.497-500.446c7.138-247.577-0.08-8.427-0.08-8.427
				l-7.03-152.927L2871.279,2468.945z"/>
			
				<linearGradient id="SVGID_00000103948231980271963550000015778164493677461157_" gradientUnits="userSpaceOnUse" x1="9742.2012" y1="2969.876" x2="9245.2295" y2="3510.4421" gradientTransform="matrix(-1 0.0095 0.0095 1 12543.6113 -63.4747)">
				<stop  offset="0" style="stop-color:#2B3582"/>
				<stop  offset="1" style="stop-color:#150E42"/>
			</linearGradient>
			<path style="fill:url(#SVGID_00000103948231980271963550000015778164493677461157_);" d="M3032.842,3155.001
				c0,0,8.333,14.631,16.637,53.641c1.5,7.045-3.368,13.848-10.529,14.621c-12.671,1.368-32.18,3.158-47.821,3.2
				c-7.209,0.019-12.896-6.205-12.096-13.371c1.596-14.283,6.77-37.742,23.268-56.145L3032.842,3155.001z"/>
			
				<linearGradient id="SVGID_00000101788550541153547250000017936998358895153080_" gradientUnits="userSpaceOnUse" x1="9533.29" y1="3110.2578" x2="9571.4014" y2="3110.2578" gradientTransform="matrix(-1 0.0095 0.0095 1 12543.6113 -63.4747)">
				<stop  offset="0" style="stop-color:#F9B776"/>
				<stop  offset="1" style="stop-color:#F47960"/>
			</linearGradient>
			<path style="fill:url(#SVGID_00000101788550541153547250000017936998358895153080_);" d="M3039.61,3110.106l-9.159,52.797
				c0,0-9.486,7.197-28.433,2.226l4.071-56.75L3039.61,3110.106z"/>
			
				<linearGradient id="SVGID_00000142888424490126266220000011560436648836504486_" gradientUnits="userSpaceOnUse" x1="9817.4707" y1="2405.4409" x2="9394.5898" y2="2978.6025" gradientTransform="matrix(-1 0.0095 0.0095 1 12543.6113 -63.4747)">
				<stop  offset="0" style="stop-color:#2B3582"/>
				<stop  offset="1" style="stop-color:#150E42"/>
			</linearGradient>
			<path style="fill:url(#SVGID_00000142888424490126266220000011560436648836504486_);" d="M3059.711,2480.807
				c41.15,234.452-2.903,580.464-18.227,648.251c-0.938,4.151-4.25,7.355-8.44,8.091c-7.117,1.249-18.844,2.326-30.446-0.925
				c-3.997-1.119-6.832-4.688-7.034-8.835c-2.664-54.66-2.011-390.382-39.531-522.701c-1.901-6.706-6.063-12.53-11.782-16.515
				l-70.845-49.354l-6.167-80.812L3059.711,2480.807z"/>
			<g>
				
					<linearGradient id="SVGID_00000066508231715378232280000015178411248099176626_" gradientUnits="userSpaceOnUse" x1="2927.2532" y1="2022.6719" x2="2665.9456" y2="3028.7043">
					<stop  offset="0" style="stop-color:#CB236D"/>
					<stop  offset="1" style="stop-color:#4C246D"/>
				</linearGradient>
				<path style="fill:url(#SVGID_00000066508231715378232280000015178411248099176626_);" d="M2807.532,2038.228
					c116.587-3.039,245.557,28.277,245.557,28.277c36.693,202.477,10.244,436.677,10.244,436.677
					c-90.047,24.534-192.243-12.642-192.243-12.642c-15.813-84.626-88.094-322.527-88.094-322.527
					c-57.04-6.527-104.13-22.517-142.987-43.879c29.155-34.455,42.639-78.071,48.429-103.833
					C2729.79,2032.72,2771.573,2039.166,2807.532,2038.228z"/>
				
					<linearGradient id="SVGID_00000004521768884249325960000015107240587329648793_" gradientUnits="userSpaceOnUse" x1="9874.0762" y1="1960.894" x2="10099.6025" y2="1960.894" gradientTransform="matrix(-1 0.0095 0.0095 1 12543.6113 -63.4747)">
					<stop  offset="0" style="stop-color:#F9B776"/>
					<stop  offset="1" style="stop-color:#F47960"/>
				</linearGradient>
				<path style="fill:url(#SVGID_00000004521768884249325960000015107240587329648793_);" d="M2461.464,1869.762
					c11.323-13.945,25.883-7.538,25.883-7.538c17.851,72.319,108.385,130.232,201.094,158.077
					c-5.791,25.762-19.274,69.378-48.429,103.833C2485.782,2039.344,2461.464,1869.762,2461.464,1869.762z"/>
			</g>
			<g>
				
					<linearGradient id="SVGID_00000029007133567647408410000003779530028327777946_" gradientUnits="userSpaceOnUse" x1="397.3698" y1="1922.1636" x2="548.7" y2="2266.4736" gradientTransform="matrix(1 -0.0095 0.0095 1 2096.8855 36.7017)">
					<stop  offset="0" style="stop-color:#F9B776"/>
					<stop  offset="1" style="stop-color:#F47960"/>
				</linearGradient>
				<path style="fill:url(#SVGID_00000029007133567647408410000003779530028327777946_);" d="M2464.277,1873.253
					c-1.162,3.822,12.773,9.492,20.796-6.17c0.214-7.472,4.451-39.512-0.07-45.554c-24.079-32.178-70.55-72.361-70.55-72.361
					c-7.715,7.76-1.227,15.248-1.227,15.248l22.579,23.076c-4.596,8.494-10.232,15.682-12.807,25.928
					c-1.95,7.759-0.633,16.019,3.344,23.026c3.992,7.032,9.433,16.171,14.563,23.315
					C2450.616,1873.281,2464.277,1873.253,2464.277,1873.253z"/>
				
					<linearGradient id="SVGID_00000153696691720317001330000008076809854141473188_" gradientUnits="userSpaceOnUse" x1="10098.5205" y1="1808.4283" x2="10161.666" y2="1711.3431" gradientTransform="matrix(-1 0.0095 0.0095 1 12543.6113 -63.4747)">
					<stop  offset="0" style="stop-color:#F9B776"/>
					<stop  offset="1" style="stop-color:#F47960"/>
				</linearGradient>
				<path style="fill:url(#SVGID_00000153696691720317001330000008076809854141473188_);" d="M2445.728,1802.508l20.537,17.076
					l6.56,17.134l-17.972,20.323c0,0-6.433-34.059-11.042-41.4C2439.202,1808.301,2441.522,1804.708,2445.728,1802.508z"/>
			</g>
			
				<linearGradient id="SVGID_00000044147281187153967010000010373290731717805978_" gradientUnits="userSpaceOnUse" x1="3129.5742" y1="2075.2227" x2="2868.2664" y2="3081.2559">
				<stop  offset="0" style="stop-color:#CB236D"/>
				<stop  offset="1" style="stop-color:#4C246D"/>
			</linearGradient>
			<path style="fill:url(#SVGID_00000044147281187153967010000010373290731717805978_);" d="M3009.442,2179.84l43.647-113.334
				c0,0,109.622,72.964,128.429,166.621c-20.565,1.712-57.962,7.422-94.441,26.28C3078.6,2215.18,3009.442,2179.84,3009.442,2179.84
				z"/>
			
				<linearGradient id="SVGID_00000164491554341960257450000008125994092703339656_" gradientUnits="userSpaceOnUse" x1="9380.5801" y1="2280.3149" x2="9665.9766" y2="2280.3149" gradientTransform="matrix(-1 0.0095 0.0095 1 12543.6113 -63.4747)">
				<stop  offset="0" style="stop-color:#F9B776"/>
				<stop  offset="1" style="stop-color:#F47960"/>
			</linearGradient>
			<path style="fill:url(#SVGID_00000164491554341960257450000008125994092703339656_);" d="M2915.275,2286.991
				c0,0,122.944,67.942,163.642,8.537c8.449-12.335,10.382-24.532,8.16-36.122c36.479-18.858,73.875-24.568,94.441-26.28
				c5.67,28.235,3.102,58.346-13.229,88.91c-71.014,132.901-268.91-4.742-268.91-4.742L2915.275,2286.991z"/>
			
				<linearGradient id="SVGID_00000069386367306202458960000004629394432218377612_" gradientUnits="userSpaceOnUse" x1="9599.7344" y1="1975.2146" x2="9712.5762" y2="1975.2146" gradientTransform="matrix(-1 0.0095 0.0095 1 12543.6113 -63.4747)">
				<stop  offset="0" style="stop-color:#F9B776"/>
				<stop  offset="1" style="stop-color:#F47960"/>
			</linearGradient>
			<path style="fill:url(#SVGID_00000069386367306202458960000004629394432218377612_);" d="M2924.74,1942.436l38.126,106.943
				c0.631,1.771-0.08,3.747-1.718,4.673c-10.06,5.688-46.343,22.198-90.519-5.222c-4.602-2.857-7.761-7.557-8.507-12.922
				l-12.9-92.751L2924.74,1942.436z"/>
			<g>
				
					<linearGradient id="SVGID_00000182510780511476244730000016306570771223100313_" gradientUnits="userSpaceOnUse" x1="1639.4226" y1="5091.9722" x2="1597.2556" y2="4952.8955" gradientTransform="matrix(-0.7523 -0.6588 -0.6588 0.7523 7410.2085 -818.1582)">
					<stop  offset="0" style="stop-color:#F9B776"/>
					<stop  offset="1" style="stop-color:#F47960"/>
				</linearGradient>
				<path style="fill:url(#SVGID_00000182510780511476244730000016306570771223100313_);" d="M2843.065,1843.848
					c0,0-40.011,77.08-34.493,108.01c5.518,30.929,55.99,28.223,99.842,2.642l30.021-83.104L2843.065,1843.848z"/>
				
					<linearGradient id="SVGID_00000006675124900415640200000005121473708876305325_" gradientUnits="userSpaceOnUse" x1="1601.3826" y1="4849.6514" x2="1636.6545" y2="5050.832" gradientTransform="matrix(-0.7523 -0.6588 -0.6588 0.7523 7410.2085 -818.1582)">
					<stop  offset="0" style="stop-color:#2B3582"/>
					<stop  offset="1" style="stop-color:#150E42"/>
				</linearGradient>
				<path style="fill:url(#SVGID_00000006675124900415640200000005121473708876305325_);" d="M2906.077,1913.851
					c-1.799-0.777-2.481-2.964-1.424-4.614c3.217-5.018,9.239-15.249,11.106-24.174c0,0,7.279-4.76-18.745-10.728
					c-26.025-5.967-64.839-15.245-73.188-37.268c-8.141-21.473,12.191-75.862,45.867-33.002c1.281,1.631,3.76,1.644,5.009-0.013
					c5.385-7.149,19.58-22.017,39.569-13.276c18.705,8.18,20.934,21.808,20.743,28.691c-0.056,2.024,1.769,3.58,3.754,3.182
					c9.4-1.886,31.983-3.644,42.753,19.438c8.87,19.012,3.326,29.875-1.766,35.21c-1.65,1.729-0.893,4.543,1.399,5.219
					c6.208,1.836,14.249,7.008,13.588,21.516c-0.915,20.056-23.344,18.504-29.734,17.651c-1.047-0.139-2.097,0.229-2.797,1.02
					c-5.414,6.107-29.82,32.051-56.47,35.405c-2.308,0.291-4.12-1.973-3.385-4.18l11.226-33.674c0.522-1.564-0.241-3.267-1.754-3.92
					L2906.077,1913.851z"/>
				
					<linearGradient id="SVGID_00000161597052706391068870000011959690194216284308_" gradientUnits="userSpaceOnUse" x1="1596.3185" y1="5091.3228" x2="1558.3801" y2="4966.1929" gradientTransform="matrix(-0.7523 -0.6588 -0.6588 0.7523 7410.2085 -818.1582)">
					<stop  offset="0" style="stop-color:#F9B776"/>
					<stop  offset="1" style="stop-color:#F47960"/>
				</linearGradient>
				<path style="fill:url(#SVGID_00000161597052706391068870000011959690194216284308_);" d="M2901.481,1918.659
					c0,0,28.819-20.179,31.098-3.439c2.279,16.74-25.89,24.526-39.939,18.411L2901.481,1918.659z"/>
			</g>
			<g>
				<g>
					
						<linearGradient id="SVGID_00000035506324576546489810000007973156706119462802_" gradientUnits="userSpaceOnUse" x1="9452.5518" y1="2124.6143" x2="9610.0332" y2="2780.7871" gradientTransform="matrix(-1 0 0 1 12275.3223 0)">
						<stop  offset="0" style="stop-color:#2B3582"/>
						<stop  offset="1" style="stop-color:#150E42"/>
					</linearGradient>
					<path style="fill:url(#SVGID_00000035506324576546489810000007973156706119462802_);" d="M2940.402,2394.367l-66.972-233.884
						c-0.76-2.655-3.026-4.591-5.769-4.911c-12.134-1.416-47.295-5.391-87.891-8.824c-48.899-4.136-105.687-7.488-139.621-4.637
						c-4.824,0.405-7.739,5.508-5.594,9.848c19.297,39.04,98.672,197.847,138.421,249.87c1.317,1.723,3.354,2.731,5.522,2.711
						l155.388-1.446C2938.408,2403.052,2941.646,2398.714,2940.402,2394.367z"/>
					
						<linearGradient id="SVGID_00000137813135067297451680000011229693923536281779_" gradientUnits="userSpaceOnUse" x1="9344.6416" y1="2298.2068" x2="9433.8662" y2="2298.2068" gradientTransform="matrix(-1 0 0 1 12275.3223 0)">
						<stop  offset="0" style="stop-color:#F9B776"/>
						<stop  offset="1" style="stop-color:#F47960"/>
					</linearGradient>
					<path style="fill:url(#SVGID_00000137813135067297451680000011229693923536281779_);" d="M2924.22,2337.86
						c0,0,9.33-38.362,5.566-51.972c-3.763-13.611-11.055-31.109-35.358-27.22c-24.304,3.888-52.973,14.127-52.973,14.127
						s1.448,17.728,19.919,12.008l-11.455,8.863c0,0,1.637,14.194,17.24,6.611l-10.654,11.753c0,0,6.701,11.658,18.18,4.181
						C2886.165,2308.734,2891.668,2342.48,2924.22,2337.86z"/>
				</g>
				
					<linearGradient id="SVGID_00000078724702815170847200000002375273930141674421_" gradientUnits="userSpaceOnUse" x1="2759.303" y1="2194.6003" x2="2782.8384" y2="2292.6646">
					<stop  offset="0" style="stop-color:#53D8FF"/>
					<stop  offset="1" style="stop-color:#3840F7"/>
				</linearGradient>
				<path style="fill:url(#SVGID_00000078724702815170847200000002375273930141674421_);" d="M2784.234,2216.567
					c0,10.858-8.802,19.659-19.66,19.659c-10.857,0-19.659-8.801-19.659-19.659c0-10.858,8.802-19.66,19.659-19.66
					C2775.433,2196.907,2784.234,2205.708,2784.234,2216.567z"/>
				<path style="fill:#FFFFFF;" d="M2865.851,2229.526l-13.635-46.256c-1.673-5.68-6.24-9.945-11.917-11.132
					c-42.738-8.917-159.715-10.808-160.891-10.825l0.078-5.226c4.824,0.074,118.656,1.919,161.88,10.938
					c7.564,1.578,13.643,7.237,15.865,14.766l13.636,46.256L2865.851,2229.526z"/>
			</g>
		</g>
	</g>
</g>
</svg>
